<svg viewBox="0 0 100 100" fill="none" xmlns="http://www.w3.org/2000/svg">
  <defs>
    <linearGradient id="logoGrad" x1="0%" y1="0%" x2="100%" y2="100%">
      <stop offset="0%" stop-color="#06b6d4" />
      <stop offset="60%" stop-color="#6366f1" />
      <stop offset="100%" stop-color="#f59e0b" />
    </linearGradient>
    <linearGradient id="starGrad" x1="0%" y1="100%" x2="100%" y2="0%">
      <stop offset="0%" stop-color="#4f46e5" />
      <stop offset="100%" stop-color="#06b6d4" />
    </linearGradient>
    <filter id="logoGlow" x="-25%" y="-25%" width="150%" height="150%">
      <feGaussianBlur stdDeviation="4" result="blur" />
      <feComposite in="SourceGraphic" in2="blur" operator="over" />
    </filter>
  </defs>
  
  <!-- Outer elegant telemetry geometric ring -->
  <circle 
    cx="50" 
    cy="50" 
    r="44" 
    stroke="url(#logoGrad)" 
    stroke-width="2" 
    stroke-dasharray="4, 4" 
    opacity="0.65" 
  />

  <!-- Dynamic interlocking diagonal data orbits -->
  <ellipse 
    cx="50" 
    cy="50" 
    rx="40" 
    ry="13" 
    stroke="url(#logoGrad)" 
    stroke-width="3.5" 
    fill="none" 
    transform="rotate(-30 50 50)" 
    stroke-linecap="round" 
    opacity="0.95"
  />
  <ellipse 
    cx="50" 
    cy="50" 
    rx="40" 
    ry="13" 
    stroke="url(#logoGrad)" 
    stroke-width="3" 
    fill="none" 
    transform="rotate(45 50 50)" 
    stroke-linecap="round" 
    opacity="0.75"
  />

  <!-- Outer data grounding anchor nodes -->
  <circle cx="15" cy="30" r="5" fill="#06b6d4" filter="url(#logoGlow)" />
  <circle cx="85" cy="70" r="5" fill="#f59e0b" filter="url(#logoGlow)" />
  <circle cx="78" cy="22" r="4.5" fill="#6366f1" filter="url(#logoGlow)" />
  <circle cx="22" cy="78" r="4.5" fill="#ec4899" filter="url(#logoGlow)" />

  <!-- Central Majestic ChatGPT/Gemini style 4-point sparkle -->
  <path
    d="M 50 16 Q 50 50, 84 50 Q 50 50, 50 84 Q 50 50, 16 50 Q 50 50, 50 16 Z"
    fill="url(#starGrad)"
    filter="url(#logoGlow)"
  />
  
  <!-- Micro white core star for high-end brilliance -->
  <path
    d="M 50 32 Q 50 50, 68 50 Q 50 50, 50 68 Q 50 50, 32 50 Q 50 50, 50 32 Z"
    fill="#ffffff"
    opacity="0.95"
  />
</svg>
